<svg xmlns="http://www.w3.org/2000/svg" xmlns:xlink="http://www.w3.org/1999/xlink" viewBox="0 0 382.92 152.56"><defs><style>.cls-1{fill:url(#linear-gradient);}.cls-2{fill:url(#linear-gradient-2);}.cls-3{fill:#fff;}</style><linearGradient id="linear-gradient" x1="282.84" y1="167.38" x2="282.84" y2="14.81" gradientUnits="userSpaceOnUse"><stop offset="0" stop-color="#15a270"/><stop offset="0.01" stop-color="#15a270"/><stop offset="0.28" stop-color="#15a270"/><stop offset="0.67" stop-color="#1ccb8c"/><stop offset="0.89" stop-color="#21e59f"/><stop offset="1" stop-color="#21e59f"/></linearGradient><linearGradient id="linear-gradient-2" x1="343.28" y1="167.38" x2="343.28" y2="14.81" xlink:href="#linear-gradient"/></defs><g id="Layer_2" data-name="Layer 2"><path class="cls-1" d="M281.66,14.81,232,42.79v83.13s.56,9.89,7.19,14.27l46.17,27.19,48.31-28L291.1,114.24s-9.89-7.08-9.66-19Z" transform="translate(-11.2 -14.81)"/><path class="cls-2" d="M344.46,167.38l49.66-28V56.27s-.56-9.89-7.19-14.27L340.76,14.81l-48.31,28L335,68s9.88,7.08,9.66,19Z" transform="translate(-11.2 -14.81)"/><path class="cls-3" d="M11.2,136.9V47.4H30.56v89.5Zm19.36,0V120.22H44.69V136.9Zm14.13,0V120.22c1,0,1.7.75,2,2.23a28.34,28.34,0,0,1,.51,6,29.23,29.23,0,0,1-.51,6.11C46.39,136.14,45.71,136.9,44.69,136.9Z" transform="translate(-11.2 -14.81)"/><path class="cls-3" d="M44.69,136.9c-.93,0-1.59-.76-2-2.29a25.63,25.63,0,0,1-.58-6.11,24.86,24.86,0,0,1,.58-6c.38-1.48,1-2.23,2-2.23Zm0,0V120.22H76.52V136.9Zm31.83,0V120.22c.93,0,1.59.75,2,2.23a24.86,24.86,0,0,1,.58,6,25.63,25.63,0,0,1-.58,6.11C78.11,136.14,77.45,136.9,76.52,136.9Z" transform="translate(-11.2 -14.81)"/><path class="cls-3" d="M76.52,136.9c-.93,0-1.59-.76-2-2.29A26.16,26.16,0,0,1,74,128.5a25.37,25.37,0,0,1,.58-6c.38-1.48,1-2.23,2-2.23Zm0,0V120.22h31.83V136.9Zm31.83,0V120.22c.93,0,1.59.75,2,2.23a24.86,24.86,0,0,1,.58,6,25.63,25.63,0,0,1-.58,6.11C109.94,136.14,109.28,136.9,108.35,136.9Z" transform="translate(-11.2 -14.81)"/><path class="cls-3" d="M108.35,136.9c-.93,0-1.59-.76-2-2.29a26.24,26.24,0,0,1-.57-6.11,25.45,25.45,0,0,1,.57-6c.38-1.48,1-2.23,2-2.23Zm0,0V120.22h25.08L121.59,130V72.86h19.48v64ZM121.59,61V45.49H141.2V61Zm19.48,75.88V120.22h13.37V136.9Zm13.37,0V120.22c.94,0,1.59.75,2,2.23a25.45,25.45,0,0,1,.57,6,26.24,26.24,0,0,1-.57,6.11C156,136.14,155.38,136.9,154.44,136.9Z" transform="translate(-11.2 -14.81)"/><path class="cls-3" d="M154.44,136.9c-.93,0-1.59-.76-2-2.29a26.24,26.24,0,0,1-.57-6.11,25.45,25.45,0,0,1,.57-6c.38-1.48,1-2.23,2-2.23Zm0,0V120.22h14.14V136.9Zm14.14,0V47.4h19.48v89.5Z" transform="translate(-11.2 -14.81)"/></g><g id="Layer_3" data-name="Layer 3"><rect class="cls-3" x="300.87" y="77.79" width="26.63" height="26.63" transform="translate(72.15 308.09) rotate(-61.29)"/></g></svg>